<svg id="svg" version="1.1" xmlns="http://www.w3.org/2000/svg" xmlns:xlink="http://www.w3.org/1999/xlink" width="400" height="71.96787148594377" viewBox="0, 0, 400,71.96787148594377"><g id="svgg"><path id="path0" d="M142.000 19.111 C 141.188 19.388,140.666 19.736,139.994 20.448 C 139.079 21.420,138.167 22.592,138.167 22.798 C 138.167 22.881,138.017 23.084,137.833 23.250 C 137.650 23.416,137.500 23.643,137.500 23.755 C 137.500 23.867,137.393 24.048,137.262 24.157 C 136.864 24.487,136.128 26.028,136.291 26.191 C 136.438 26.338,137.500 25.322,137.500 25.036 C 137.500 24.959,137.725 24.680,138.000 24.417 C 138.275 24.153,138.500 23.878,138.500 23.804 C 138.500 23.606,139.896 21.816,140.442 21.314 C 141.963 19.917,143.641 21.015,142.658 22.765 C 142.471 23.099,142.355 23.411,142.403 23.458 C 142.550 23.605,143.667 22.996,143.667 22.768 C 143.667 22.649,143.808 22.424,143.981 22.267 C 145.503 20.890,143.967 18.442,142.000 19.111 M49.720 19.546 C 48.129 20.393,43.499 25.488,43.743 26.125 C 43.824 26.335,44.485 25.761,46.574 23.666 C 49.343 20.889,49.583 20.699,50.349 20.678 C 51.361 20.651,51.640 22.033,50.847 23.147 C 50.445 23.712,50.623 23.955,51.202 23.631 C 54.476 21.795,53.023 17.790,49.720 19.546 M360.720 19.546 C 359.128 20.393,354.499 25.488,354.743 26.125 C 354.824 26.336,355.484 25.764,357.581 23.664 C 360.363 20.878,360.589 20.699,361.349 20.678 C 362.361 20.651,362.640 22.033,361.847 23.147 C 361.445 23.712,361.623 23.955,362.202 23.631 C 365.484 21.791,364.032 17.786,360.720 19.546 M182.281 20.301 C 181.691 20.916,181.716 21.321,182.383 21.967 C 183.069 22.632,183.126 22.630,183.882 21.917 C 184.648 21.195,184.648 21.097,183.884 20.397 C 183.135 19.712,182.862 19.695,182.281 20.301 M248.269 20.453 C 247.552 21.192,247.547 21.229,248.092 21.943 C 248.623 22.639,249.215 22.676,249.866 22.052 C 250.482 21.462,250.456 21.091,249.747 20.403 C 249.019 19.696,249.004 19.697,248.269 20.453 M305.533 20.383 C 304.863 21.074,304.866 21.304,305.550 21.967 C 306.249 22.645,306.541 22.637,307.256 21.922 C 307.972 21.206,307.972 21.203,307.201 20.450 C 306.426 19.693,306.210 19.684,305.533 20.383 M302.078 20.168 C 301.777 20.281,301.054 21.013,300.333 21.934 C 299.967 22.401,298.450 24.212,298.214 24.463 C 298.103 24.582,297.880 24.901,297.720 25.173 C 297.559 25.444,297.369 25.667,297.297 25.667 C 297.225 25.667,297.167 25.817,297.167 26.000 C 297.167 26.690,297.756 26.268,300.137 23.874 C 302.436 21.562,303.000 20.900,303.000 20.508 C 303.000 20.238,302.439 20.031,302.078 20.168 M209.590 20.825 C 209.421 21.013,209.187 21.167,209.071 21.167 C 208.956 21.167,208.836 21.226,208.806 21.298 C 208.775 21.370,208.412 21.689,208.000 22.006 C 207.588 22.324,207.213 22.621,207.167 22.667 C 207.121 22.712,206.408 23.350,205.583 24.083 C 203.581 25.864,203.667 25.774,203.667 26.071 C 203.667 26.410,204.882 25.987,205.333 25.492 C 205.379 25.442,206.054 24.957,206.833 24.415 C 208.322 23.380,210.264 21.917,210.637 21.550 C 210.758 21.431,210.833 21.165,210.803 20.959 C 210.730 20.446,210.006 20.366,209.590 20.825 M379.639 20.961 C 378.705 21.657,377.912 22.323,376.766 23.375 C 376.192 23.902,375.674 24.333,375.615 24.333 C 375.357 24.333,374.000 25.760,374.000 26.032 C 374.000 26.198,374.035 26.333,374.078 26.333 C 374.394 26.333,378.399 23.665,379.201 22.919 C 379.449 22.689,379.715 22.500,379.792 22.500 C 380.100 22.500,381.196 21.193,381.139 20.893 C 381.048 20.411,380.333 20.443,379.639 20.961 M60.617 23.299 C 59.884 24.050,59.882 24.064,60.425 24.776 C 61.049 25.593,62.052 25.451,62.480 24.485 C 62.721 23.941,62.653 23.790,61.833 23.052 C 61.297 22.569,61.338 22.561,60.617 23.299 M111.500 23.269 C 111.134 23.601,110.833 23.950,110.833 24.045 C 110.833 24.421,112.133 25.502,112.445 25.386 C 112.820 25.246,113.833 24.261,113.833 24.036 C 113.833 23.831,112.558 22.667,112.333 22.667 C 112.242 22.667,111.867 22.938,111.500 23.269 M180.247 23.264 C 179.550 23.982,179.542 24.102,180.144 24.763 C 180.863 25.553,181.088 25.570,181.837 24.893 C 182.661 24.149,182.661 24.017,181.833 23.269 C 181.010 22.526,180.964 22.526,180.247 23.264 M184.422 23.184 C 183.692 23.826,183.684 24.124,184.383 24.801 C 185.079 25.476,185.467 25.472,186.134 24.784 C 186.812 24.084,186.805 23.997,186.000 23.269 C 185.190 22.538,185.160 22.536,184.422 23.184 M246.284 23.299 C 245.056 24.556,246.522 26.059,247.835 24.889 C 248.479 24.315,248.465 23.860,247.784 23.199 C 247.091 22.528,247.032 22.532,246.284 23.299 M250.262 23.228 C 249.543 23.906,249.532 24.092,250.169 24.792 C 250.801 25.486,251.334 25.495,251.902 24.821 C 252.462 24.155,252.447 23.977,251.772 23.262 C 251.082 22.530,251.004 22.528,250.262 23.228 M303.617 23.299 C 303.278 23.646,303.000 24.013,303.000 24.113 C 303.000 24.285,304.241 25.500,304.417 25.500 C 304.601 25.500,305.833 24.280,305.833 24.098 C 305.833 23.861,304.639 22.667,304.402 22.667 C 304.310 22.667,303.957 22.951,303.617 23.299 M307.500 23.269 C 306.672 24.017,306.672 24.149,307.496 24.893 C 308.240 25.566,308.455 25.552,309.191 24.781 C 309.814 24.130,309.791 23.810,309.078 23.184 C 308.340 22.536,308.310 22.538,307.500 23.269 M21.656 28.292 C 20.443 29.661,20.693 30.483,22.401 30.739 C 23.273 30.870,23.629 31.185,23.256 31.495 C 23.119 31.609,22.907 31.900,22.784 32.143 C 22.553 32.599,22.357 32.983,22.026 33.623 C 21.313 35.002,22.417 38.500,23.566 38.500 C 23.702 38.500,23.860 38.575,23.917 38.667 C 24.259 39.220,27.702 38.624,28.859 37.811 C 29.102 37.640,29.377 37.500,29.470 37.500 C 29.563 37.500,29.664 37.444,29.694 37.375 C 29.852 37.021,30.798 36.532,30.978 36.711 C 31.223 36.957,31.244 44.432,31.000 44.583 C 30.908 44.640,30.833 45.127,30.833 45.667 C 30.833 46.206,30.758 46.693,30.667 46.750 C 30.575 46.807,30.500 46.986,30.500 47.148 C 30.500 47.510,29.811 48.898,29.413 49.338 C 28.998 49.796,29.498 49.976,30.044 49.564 C 30.840 48.964,32.167 46.947,32.167 46.338 C 32.167 46.163,32.242 45.973,32.333 45.917 C 32.425 45.860,32.500 45.485,32.500 45.083 C 32.500 44.682,32.575 44.307,32.667 44.250 C 32.764 44.190,32.833 43.252,32.833 42.000 C 32.833 40.748,32.903 39.810,33.000 39.750 C 33.105 39.685,33.167 37.907,33.167 34.967 L 33.167 30.287 33.841 29.556 C 34.752 28.568,34.510 28.113,33.479 28.875 C 32.981 29.244,32.892 29.250,28.087 29.250 C 22.737 29.250,22.500 29.207,22.500 28.224 C 22.500 27.703,22.154 27.730,21.656 28.292 M66.323 28.292 C 65.111 29.659,65.498 30.650,67.250 30.667 C 68.108 30.675,68.269 30.888,67.855 31.470 C 66.002 34.072,65.948 36.735,67.718 38.259 C 69.012 39.373,71.555 38.884,73.857 37.077 C 74.879 36.275,74.894 36.278,75.380 37.342 C 76.343 39.449,80.030 39.222,82.486 36.905 C 83.241 36.193,83.469 36.371,83.534 37.722 C 83.597 39.027,83.994 39.184,84.911 38.266 C 85.516 37.662,85.798 35.870,85.333 35.583 C 85.234 35.522,85.167 34.454,85.167 32.942 L 85.167 30.403 85.833 29.667 C 86.200 29.262,86.500 28.868,86.500 28.793 C 86.500 28.518,86.002 28.475,85.749 28.727 C 85.278 29.198,84.329 29.250,76.250 29.250 L 68.250 29.250 67.708 28.864 C 67.410 28.651,67.167 28.332,67.167 28.155 C 67.167 27.697,66.797 27.757,66.323 28.292 M95.756 28.351 C 95.432 28.635,95.167 29.001,95.167 29.165 C 95.167 29.418,96.344 30.667,96.583 30.667 C 96.768 30.667,98.000 29.447,98.000 29.264 C 98.000 29.012,96.798 27.833,96.540 27.833 C 96.433 27.833,96.080 28.066,95.756 28.351 M311.162 28.338 C 310.125 29.448,310.357 30.369,311.751 30.682 C 312.902 30.939,313.104 31.155,312.690 31.685 C 312.224 32.282,311.667 33.443,311.667 33.817 C 311.667 33.998,311.592 34.193,311.500 34.250 C 311.408 34.307,311.333 34.757,311.333 35.250 C 311.333 35.743,311.408 36.193,311.500 36.250 C 311.592 36.307,311.667 36.493,311.667 36.665 C 311.667 37.037,312.346 38.148,312.583 38.163 C 312.675 38.169,312.938 38.321,313.167 38.500 C 314.399 39.464,318.119 38.489,320.043 36.697 C 320.329 36.430,320.560 36.328,320.656 36.426 C 320.959 36.735,320.485 46.724,320.151 47.075 C 320.068 47.162,320.000 47.357,320.000 47.508 C 320.000 47.868,319.559 48.744,319.247 49.003 C 318.969 49.233,318.911 49.833,319.166 49.833 C 319.420 49.833,320.667 48.657,320.667 48.418 C 320.667 48.302,320.781 48.113,320.920 47.997 C 321.285 47.694,321.754 46.603,322.030 45.417 C 322.375 43.930,322.534 41.469,322.639 35.983 L 322.750 30.215 323.391 29.507 C 324.178 28.635,324.012 28.307,323.066 28.866 C 322.429 29.243,322.327 29.250,317.639 29.250 L 312.860 29.250 312.432 28.848 C 312.136 28.569,312.054 28.385,312.167 28.249 C 312.257 28.141,312.281 28.003,312.221 27.943 C 311.990 27.712,311.616 27.852,311.162 28.338 M332.656 28.292 C 331.443 29.661,331.693 30.483,333.401 30.739 C 334.273 30.870,334.629 31.185,334.256 31.495 C 334.119 31.609,333.907 31.900,333.784 32.143 C 333.553 32.599,333.357 32.983,333.026 33.623 C 332.313 35.002,333.417 38.500,334.566 38.500 C 334.702 38.500,334.860 38.575,334.917 38.667 C 335.259 39.220,338.702 38.624,339.859 37.811 C 340.102 37.640,340.377 37.500,340.470 37.500 C 340.563 37.500,340.664 37.444,340.694 37.375 C 340.852 37.021,341.798 36.532,341.978 36.711 C 342.223 36.957,342.244 44.432,342.000 44.583 C 341.908 44.640,341.833 45.127,341.833 45.667 C 341.833 46.206,341.758 46.693,341.667 46.750 C 341.575 46.807,341.500 46.986,341.500 47.148 C 341.500 47.510,340.811 48.898,340.413 49.338 C 339.998 49.796,340.498 49.976,341.044 49.564 C 341.840 48.964,343.167 46.947,343.167 46.338 C 343.167 46.163,343.242 45.973,343.333 45.917 C 343.425 45.860,343.500 45.485,343.500 45.083 C 343.500 44.682,343.575 44.307,343.667 44.250 C 343.764 44.190,343.833 43.252,343.833 42.000 C 343.833 40.748,343.903 39.810,344.000 39.750 C 344.105 39.685,344.167 37.907,344.167 34.967 L 344.167 30.287 344.841 29.556 C 345.752 28.568,345.510 28.113,344.479 28.875 C 343.981 29.244,343.892 29.250,339.087 29.250 C 333.737 29.250,333.500 29.207,333.500 28.224 C 333.500 27.703,333.154 27.730,332.656 28.292 M111.500 28.698 C 109.508 29.538,108.083 30.801,107.204 32.504 C 105.881 35.069,107.065 38.046,108.821 36.569 C 109.398 36.083,109.543 35.048,109.087 34.670 C 107.609 33.443,108.508 30.831,110.579 30.334 C 113.427 29.651,116.499 32.413,115.768 35.000 C 115.427 36.206,115.397 36.277,114.633 37.648 C 114.205 38.415,112.280 41.137,111.406 42.210 C 111.274 42.372,111.166 42.559,111.166 42.627 C 111.165 42.695,110.940 42.990,110.666 43.283 C 110.391 43.576,110.167 43.885,110.167 43.971 C 110.167 44.056,110.053 44.220,109.915 44.335 C 108.569 45.452,107.959 49.500,109.136 49.500 C 110.034 49.500,110.965 48.115,110.474 47.509 C 109.976 46.895,110.378 44.635,111.034 44.361 C 111.107 44.331,111.167 44.232,111.167 44.141 C 111.167 43.990,112.104 42.526,112.323 42.333 C 112.461 42.213,114.183 39.859,114.669 39.126 C 114.897 38.783,115.140 38.502,115.208 38.501 C 115.277 38.501,115.333 38.397,115.333 38.270 C 115.333 38.144,115.442 37.951,115.574 37.841 C 115.789 37.663,116.985 35.322,117.476 34.117 C 118.572 31.432,116.231 28.479,113.034 28.511 C 112.419 28.517,111.729 28.602,111.500 28.698 M374.667 28.698 C 372.584 29.576,371.196 30.791,370.342 32.482 C 369.031 35.079,370.325 38.201,372.013 36.513 C 372.644 35.881,372.636 35.291,371.982 34.333 C 371.530 33.672,371.480 33.487,371.563 32.768 C 372.061 28.427,378.944 29.926,378.907 34.367 C 378.899 35.427,378.774 35.875,378.220 36.833 C 378.088 37.063,377.938 37.381,377.887 37.542 C 377.836 37.702,377.728 37.833,377.647 37.833 C 377.566 37.833,377.500 37.932,377.500 38.052 C 377.500 38.172,377.350 38.431,377.167 38.628 C 376.983 38.825,376.833 39.026,376.833 39.075 C 376.833 39.123,376.477 39.621,376.042 40.182 C 375.606 40.742,375.137 41.369,375.000 41.574 C 374.863 41.779,374.554 42.241,374.314 42.601 C 374.075 42.961,373.756 43.357,373.606 43.481 C 373.456 43.606,373.333 43.802,373.333 43.917 C 373.333 44.032,373.224 44.216,373.091 44.327 C 371.819 45.383,371.097 49.184,372.120 49.441 C 372.994 49.660,374.260 48.120,373.655 47.573 C 372.884 46.875,373.508 44.982,375.310 42.549 C 375.735 41.975,376.287 41.222,376.535 40.877 C 377.669 39.302,378.697 37.895,378.882 37.667 C 379.902 36.402,380.951 33.228,380.737 32.052 C 380.264 29.447,377.073 27.684,374.667 28.698 M43.796 29.208 C 43.272 29.415,42.690 29.715,42.503 29.875 C 42.316 30.035,42.110 30.167,42.045 30.167 C 41.981 30.167,41.575 30.514,41.144 30.939 C 40.259 31.810,39.833 31.831,39.833 31.003 C 39.833 28.780,38.305 28.444,36.375 30.243 C 35.985 30.606,35.667 30.962,35.667 31.035 C 35.667 31.226,36.295 31.197,36.417 31.000 C 36.563 30.763,37.426 30.793,37.632 31.042 C 37.939 31.411,38.025 34.633,37.853 39.250 C 37.635 45.119,37.241 47.355,36.146 48.947 C 35.559 49.799,35.552 49.898,36.087 49.764 C 36.584 49.639,37.333 49.024,37.333 48.740 C 37.333 48.631,37.450 48.444,37.592 48.326 C 37.825 48.133,38.256 47.292,38.571 46.417 C 38.690 46.083,38.845 45.385,39.181 43.667 C 39.427 42.404,39.661 39.563,39.764 36.583 C 39.861 33.783,40.058 33.126,41.157 31.946 C 43.534 29.393,46.589 30.893,46.550 34.595 C 46.528 36.688,45.407 37.716,44.135 36.811 C 43.015 36.013,41.667 36.526,41.667 37.749 C 41.667 38.466,42.218 38.833,43.295 38.833 C 45.085 38.833,46.720 37.474,47.859 35.039 C 48.234 34.238,48.697 33.257,48.888 32.859 C 50.170 30.189,53.152 29.940,54.311 32.406 C 55.455 34.839,53.817 38.306,52.229 36.814 C 51.329 35.968,49.833 36.532,49.833 37.716 C 49.833 40.679,55.201 37.982,56.235 34.498 C 57.727 29.475,53.578 27.156,49.633 30.808 C 48.510 31.848,48.473 31.840,47.682 30.397 C 46.919 29.005,45.454 28.557,43.796 29.208 M128.583 29.075 C 127.421 29.421,127.150 29.581,124.750 31.331 C 124.009 31.871,123.667 31.723,123.667 30.862 C 123.667 28.762,121.886 28.486,120.106 30.310 C 119.396 31.038,119.397 31.548,120.108 31.082 C 121.529 30.152,121.828 30.906,121.829 35.417 C 121.831 43.371,121.107 48.207,119.746 49.337 C 119.348 49.667,119.456 49.880,119.958 49.756 C 120.474 49.628,121.167 49.046,121.167 48.741 C 121.167 48.631,121.283 48.444,121.425 48.326 C 122.579 47.369,123.667 41.415,123.667 36.057 C 123.667 33.997,123.834 33.470,124.813 32.441 C 126.755 30.403,128.732 30.043,130.203 31.460 C 132.588 33.758,131.151 38.602,128.619 36.799 C 127.582 36.061,126.406 36.420,126.226 37.530 C 125.987 39.005,128.343 39.337,130.257 38.098 C 130.791 37.752,132.167 36.346,132.167 36.146 C 132.167 36.079,132.260 35.925,132.375 35.804 C 133.164 34.970,133.522 32.760,133.065 31.548 C 132.206 29.271,130.706 28.443,128.583 29.075 M156.611 29.241 C 155.466 29.712,154.553 30.294,153.706 31.092 C 152.962 31.794,152.765 31.757,152.701 30.904 C 152.579 29.270,151.799 28.779,150.312 29.402 C 149.695 29.660,148.500 30.772,148.500 31.088 C 148.500 31.311,149.280 31.221,149.429 30.980 C 149.771 30.426,150.667 31.000,150.667 31.773 C 150.667 32.071,150.742 32.360,150.833 32.417 C 150.925 32.473,151.000 32.736,151.000 33.000 C 151.000 33.264,150.925 33.527,150.833 33.583 C 150.737 33.643,150.665 34.548,150.663 35.718 C 150.660 37.478,150.616 37.806,150.333 38.167 C 149.793 38.857,149.885 38.880,152.625 38.735 C 154.069 38.658,158.212 38.593,161.833 38.589 L 168.417 38.583 169.166 38.184 C 169.988 37.746,171.000 36.816,171.000 36.499 C 171.000 36.292,170.176 36.408,170.002 36.639 C 169.851 36.839,168.742 37.167,168.217 37.167 C 167.388 37.167,167.264 36.827,167.818 36.070 C 168.597 35.006,169.000 34.188,169.000 33.671 C 169.000 33.405,169.075 33.140,169.167 33.083 C 169.258 33.027,169.333 32.652,169.333 32.250 C 169.333 31.848,169.258 31.473,169.167 31.417 C 169.075 31.360,169.000 31.167,169.000 30.988 C 169.000 28.428,165.066 28.342,162.420 30.845 C 161.370 31.838,161.219 31.828,160.662 30.727 C 160.169 29.753,160.106 29.686,159.227 29.208 C 158.356 28.734,157.827 28.741,156.611 29.241 M180.167 29.031 C 179.136 29.465,178.871 29.603,178.167 30.072 C 177.754 30.347,177.142 30.827,176.807 31.138 C 176.094 31.801,175.833 31.723,175.833 30.849 C 175.833 29.743,175.423 29.167,174.635 29.167 C 173.594 29.167,171.667 30.407,171.667 31.078 C 171.667 31.310,172.442 31.229,172.596 30.980 C 172.729 30.764,173.326 30.802,173.565 31.042 C 174.265 31.743,174.217 37.487,173.504 38.245 C 173.082 38.695,173.079 38.833,173.492 38.833 C 174.328 38.833,175.659 36.761,175.793 35.250 C 175.924 33.770,176.421 32.535,177.180 31.801 C 179.561 29.497,182.500 30.955,182.500 34.439 C 182.500 36.648,181.215 37.896,180.059 36.811 C 179.134 35.942,177.667 36.517,177.667 37.749 C 177.667 38.860,179.377 39.264,180.787 38.486 C 181.514 38.084,183.167 36.521,183.167 36.234 C 183.167 36.128,183.281 35.946,183.420 35.831 C 183.670 35.623,183.915 35.140,184.350 34.000 C 184.854 32.679,185.931 31.167,186.368 31.167 C 186.454 31.167,186.636 31.054,186.774 30.917 C 187.379 30.311,189.833 30.964,189.833 31.730 C 189.833 31.850,189.983 32.084,190.167 32.250 C 190.398 32.459,190.500 32.763,190.500 33.242 C 190.500 33.622,190.590 34.023,190.700 34.133 C 190.856 34.289,190.856 34.378,190.700 34.533 C 190.590 34.643,190.500 35.041,190.500 35.417 C 190.500 36.763,188.952 37.649,188.062 36.814 C 187.182 35.987,185.667 36.530,185.667 37.673 C 185.667 40.265,190.150 38.697,191.643 35.583 C 191.950 34.942,192.269 34.286,192.351 34.127 C 192.669 33.510,192.520 31.773,192.072 30.873 C 191.122 28.966,189.674 28.390,187.969 29.240 C 187.683 29.383,187.381 29.500,187.298 29.500 C 187.125 29.500,186.042 30.332,185.184 31.125 C 184.437 31.815,184.407 31.810,184.012 30.942 C 183.238 29.245,181.597 28.429,180.167 29.031 M202.917 29.026 C 201.644 29.448,200.619 30.065,199.417 31.133 C 198.570 31.885,198.340 31.747,198.336 30.484 C 198.333 29.554,197.978 29.167,197.128 29.167 C 196.157 29.167,194.333 30.323,194.333 30.939 C 194.333 31.201,194.929 31.249,195.083 31.000 C 195.295 30.658,195.977 30.833,196.322 31.317 C 196.832 32.034,196.841 36.656,196.333 37.706 C 195.739 38.936,195.907 39.122,196.884 38.316 C 197.708 37.637,198.266 36.489,198.374 35.250 C 198.669 31.860,201.351 29.697,203.540 31.083 C 206.169 32.749,205.375 38.308,202.720 36.817 C 201.854 36.330,201.057 36.358,200.562 36.893 C 199.388 38.158,201.260 39.432,203.106 38.624 C 204.064 38.205,205.333 37.200,205.333 36.861 C 205.333 36.777,205.446 36.614,205.583 36.500 C 205.721 36.386,206.290 35.346,206.847 34.188 C 208.535 30.688,210.456 29.634,212.073 31.323 C 214.384 33.734,213.264 38.254,210.713 36.810 C 209.150 35.925,207.331 37.323,208.552 38.471 C 209.949 39.783,213.244 37.993,214.480 35.250 C 214.604 34.975,214.772 34.620,214.853 34.461 C 215.142 33.891,215.027 31.391,214.682 30.778 C 214.045 29.643,213.906 29.492,213.175 29.149 C 211.748 28.478,209.386 29.405,207.465 31.388 L 207.008 31.860 206.600 30.969 C 205.818 29.260,204.425 28.525,202.917 29.026 M231.833 29.021 C 231.174 29.199,230.542 29.488,230.169 29.782 C 227.982 31.508,227.500 31.712,227.500 30.917 C 227.500 30.698,227.425 30.473,227.333 30.417 C 227.242 30.360,227.167 30.146,227.167 29.940 C 227.167 28.981,225.793 28.862,224.506 29.708 C 223.312 30.494,222.795 31.652,223.894 31.081 C 224.537 30.747,224.713 30.767,225.138 31.219 C 225.673 31.789,225.693 36.980,225.163 37.922 C 224.594 38.937,225.107 39.178,225.949 38.292 C 226.642 37.563,227.167 36.474,227.167 35.766 C 227.167 35.447,227.242 35.140,227.333 35.083 C 227.425 35.027,227.500 34.727,227.500 34.417 C 227.500 34.107,227.575 33.807,227.667 33.750 C 227.758 33.693,227.833 33.470,227.833 33.254 C 227.833 32.205,230.113 30.593,231.441 30.703 C 232.592 30.799,233.833 31.984,233.833 32.987 C 233.833 33.167,233.908 33.360,234.000 33.417 C 234.092 33.473,234.167 33.886,234.167 34.333 C 234.167 34.781,234.092 35.193,234.000 35.250 C 233.908 35.307,233.833 35.517,233.833 35.718 C 233.831 36.917,232.555 37.590,231.739 36.823 C 230.899 36.034,229.462 36.482,229.238 37.604 C 228.725 40.167,233.793 38.620,235.025 35.837 C 235.148 35.560,235.305 35.333,235.374 35.333 C 235.443 35.333,235.500 35.198,235.500 35.032 C 235.500 34.455,236.666 32.411,237.442 31.627 C 239.911 29.134,243.085 32.051,242.004 35.819 C 241.645 37.073,240.524 37.560,239.726 36.811 C 238.529 35.686,236.399 37.245,237.513 38.430 C 238.760 39.758,241.858 38.256,243.220 35.662 C 245.093 32.096,243.042 27.803,240.050 29.023 C 238.779 29.542,238.464 29.730,237.258 30.692 C 235.934 31.749,235.500 31.800,235.500 30.896 C 235.500 29.654,233.423 28.592,231.833 29.021 M267.417 29.217 C 266.867 29.417,266.379 29.622,266.333 29.674 C 266.287 29.727,266.093 29.877,265.901 30.010 C 265.709 30.142,265.195 30.550,264.758 30.917 C 263.784 31.734,263.596 31.747,263.537 31.000 C 263.511 30.679,263.424 30.267,263.343 30.083 C 263.263 29.900,263.155 29.619,263.104 29.458 C 262.874 28.740,261.289 29.067,260.233 30.050 C 259.220 30.993,259.046 31.522,259.894 31.081 C 260.497 30.768,260.957 30.766,261.266 31.076 C 261.680 31.489,261.418 44.798,260.987 45.242 C 260.902 45.329,260.833 45.623,260.833 45.897 C 260.833 46.742,260.040 48.788,259.556 49.189 C 259.245 49.448,259.278 49.833,259.612 49.833 C 260.259 49.833,262.167 47.202,262.167 46.310 C 262.167 46.151,262.234 45.978,262.316 45.928 C 262.472 45.831,262.620 45.044,262.772 43.500 C 262.822 42.996,262.931 42.512,263.015 42.425 C 263.098 42.338,263.167 41.639,263.167 40.872 C 263.167 38.474,262.605 38.618,272.083 38.598 L 279.250 38.583 279.977 38.195 C 280.377 37.982,280.958 37.576,281.269 37.294 C 282.095 36.542,281.993 36.045,281.114 36.537 C 279.095 37.665,277.767 37.309,278.767 35.907 C 279.900 34.318,280.315 32.743,279.953 31.407 C 279.094 28.237,276.179 28.048,273.138 30.965 C 272.202 31.863,272.031 31.825,271.423 30.582 C 270.646 28.993,269.301 28.535,267.417 29.217 M290.667 29.028 C 290.346 29.119,290.012 29.262,289.925 29.346 C 289.838 29.431,289.665 29.500,289.540 29.500 C 289.312 29.500,288.255 30.270,287.547 30.952 C 287.073 31.409,286.788 31.315,286.534 30.619 C 285.970 29.077,284.764 28.724,283.278 29.666 C 282.123 30.399,281.947 31.217,283.043 30.756 C 283.584 30.528,283.997 30.623,284.413 31.068 C 284.707 31.382,285.333 32.685,285.333 32.982 C 285.333 33.139,285.401 33.338,285.484 33.425 C 285.566 33.512,285.751 33.921,285.895 34.333 C 286.038 34.746,286.382 35.721,286.659 36.500 C 287.393 38.567,287.355 38.999,286.375 39.724 C 284.865 40.840,283.485 42.502,282.752 44.083 C 281.267 47.291,284.089 50.082,287.333 48.614 C 287.929 48.344,289.541 46.701,289.413 46.494 C 289.263 46.251,288.687 46.464,288.215 46.937 C 287.422 47.729,285.826 47.317,284.724 46.036 C 283.985 45.177,283.963 43.294,284.684 42.520 C 284.858 42.333,285.000 42.113,285.000 42.030 C 285.000 41.815,287.644 39.500,287.890 39.500 C 287.941 39.500,288.317 39.275,288.724 39.000 C 289.132 38.725,289.548 38.500,289.649 38.500 C 289.750 38.500,289.833 38.441,289.833 38.369 C 289.833 38.297,290.077 38.095,290.375 37.921 C 291.788 37.091,294.000 34.390,294.000 33.494 C 294.000 33.325,294.075 33.140,294.167 33.083 C 294.421 32.926,294.365 31.115,294.090 30.563 C 293.701 29.784,292.976 29.200,292.167 29.014 C 291.306 28.816,291.422 28.815,290.667 29.028 M354.796 29.208 C 354.272 29.415,353.690 29.715,353.503 29.875 C 353.316 30.035,353.110 30.167,353.045 30.167 C 352.981 30.167,352.575 30.514,352.144 30.939 C 351.259 31.810,350.833 31.831,350.833 31.003 C 350.833 28.780,349.305 28.444,347.375 30.243 C 346.985 30.606,346.667 30.962,346.667 31.035 C 346.667 31.226,347.295 31.197,347.417 31.000 C 347.563 30.763,348.426 30.793,348.632 31.042 C 348.940 31.413,349.025 34.644,348.848 39.250 C 348.614 45.316,348.262 47.325,347.146 48.947 C 346.552 49.809,346.550 49.898,347.125 49.756 C 347.640 49.628,348.333 49.046,348.333 48.741 C 348.333 48.631,348.450 48.444,348.592 48.326 C 349.745 47.369,350.540 43.071,350.764 36.583 C 350.861 33.783,351.058 33.126,352.157 31.946 C 354.534 29.393,357.589 30.893,357.550 34.595 C 357.528 36.688,356.407 37.716,355.135 36.811 C 353.697 35.787,351.759 37.308,353.013 38.477 C 354.465 39.829,357.436 38.082,358.859 35.039 C 359.234 34.238,359.697 33.257,359.888 32.859 C 361.170 30.189,364.152 29.940,365.311 32.406 C 366.455 34.839,364.817 38.306,363.229 36.814 C 362.329 35.968,360.833 36.532,360.833 37.716 C 360.833 40.099,365.526 38.429,366.827 35.583 C 369.329 30.113,364.994 26.771,360.633 30.808 C 359.510 31.848,359.473 31.840,358.682 30.397 C 357.919 29.005,356.454 28.557,354.796 29.208 M60.167 29.653 C 59.846 29.928,59.502 30.156,59.403 30.160 C 59.179 30.168,58.773 30.902,58.856 31.148 C 58.897 31.270,59.074 31.248,59.394 31.081 C 59.995 30.769,60.456 30.766,60.762 31.071 C 61.181 31.491,61.100 37.145,60.663 37.922 C 60.094 38.937,60.607 39.178,61.449 38.292 C 62.852 36.813,63.637 31.382,62.684 29.750 C 62.242 28.994,60.992 28.946,60.167 29.653 M137.000 29.527 C 136.246 29.963,135.500 30.669,135.500 30.948 C 135.500 31.203,136.099 31.245,136.250 31.000 C 136.461 30.658,137.143 30.833,137.489 31.317 C 138.098 32.173,137.937 37.452,137.281 38.108 C 137.075 38.314,137.154 38.867,137.375 38.764 C 137.490 38.711,137.696 38.622,137.833 38.566 C 138.200 38.419,139.167 37.046,139.167 36.673 C 139.167 36.497,139.242 36.307,139.333 36.250 C 139.672 36.041,139.545 29.759,139.195 29.442 C 138.782 29.069,137.723 29.110,137.000 29.527 M247.833 29.521 C 247.203 29.877,246.333 30.737,246.333 31.003 C 246.333 31.217,246.950 31.215,247.083 31.000 C 247.295 30.658,247.977 30.833,248.322 31.317 C 248.931 32.173,248.770 37.452,248.114 38.108 C 247.982 38.240,247.958 38.833,248.086 38.833 C 248.395 38.833,249.333 38.110,249.333 37.871 C 249.333 37.787,249.483 37.583,249.667 37.417 C 249.850 37.251,250.000 36.944,250.000 36.734 C 250.000 36.524,250.075 36.307,250.167 36.250 C 250.435 36.084,250.375 29.819,250.101 29.458 C 249.799 29.060,248.588 29.094,247.833 29.521 M298.333 29.383 C 297.669 29.692,296.513 30.841,296.611 31.096 C 296.685 31.289,296.775 31.286,297.175 31.079 C 297.808 30.752,298.224 30.769,298.558 31.138 C 299.010 31.638,298.963 37.259,298.500 38.083 C 298.096 38.802,298.094 38.833,298.442 38.833 C 298.775 38.833,299.886 37.698,300.283 36.953 C 300.645 36.271,300.816 31.005,300.511 29.875 L 300.320 29.167 299.535 29.178 C 299.103 29.184,298.563 29.276,298.333 29.383 M305.083 29.539 C 304.808 29.743,304.558 29.968,304.528 30.038 C 304.497 30.109,304.379 30.167,304.264 30.167 C 304.021 30.167,303.600 30.885,303.689 31.148 C 303.730 31.270,303.907 31.248,304.227 31.081 C 304.828 30.769,305.290 30.766,305.595 31.071 C 306.015 31.491,305.933 37.145,305.497 37.922 C 304.927 38.937,305.439 39.177,306.285 38.292 C 307.373 37.152,307.667 36.039,307.777 32.646 C 307.871 29.736,307.686 29.273,306.403 29.209 C 305.773 29.178,305.467 29.254,305.083 29.539 M158.058 31.314 C 159.525 32.660,159.809 35.816,158.558 36.855 C 158.011 37.309,151.697 37.403,152.150 36.950 C 152.251 36.849,152.333 36.599,152.333 36.393 C 152.333 36.188,152.408 35.973,152.500 35.917 C 152.592 35.860,152.667 35.420,152.667 34.938 C 152.667 33.004,154.302 31.039,156.250 30.633 C 156.745 30.529,157.522 30.822,158.058 31.314 M268.250 30.838 C 270.077 31.532,270.838 35.648,269.361 36.844 C 269.027 37.115,264.274 37.422,263.708 37.209 C 263.451 37.113,263.412 33.907,263.667 33.750 C 263.758 33.693,263.833 33.510,263.833 33.342 C 263.833 32.877,265.284 31.363,266.061 31.017 C 267.275 30.476,267.294 30.474,268.250 30.838 M291.176 31.024 C 291.804 31.352,292.333 32.099,292.333 32.659 C 292.333 32.810,292.421 33.021,292.528 33.128 C 293.153 33.753,290.721 37.500,289.691 37.500 C 289.601 37.500,289.493 37.594,289.450 37.708 C 289.337 38.008,288.845 37.345,288.839 36.885 C 288.836 36.684,288.767 36.479,288.686 36.429 C 288.605 36.378,288.501 36.130,288.455 35.877 C 288.408 35.624,288.094 34.633,287.755 33.675 L 287.139 31.934 287.754 31.403 C 288.852 30.454,289.867 30.342,291.176 31.024 M31.525 31.408 C 31.493 31.771,31.399 32.244,31.316 32.461 C 31.234 32.678,31.167 33.264,31.167 33.763 C 31.167 36.613,26.884 38.273,24.708 36.267 C 24.410 35.993,24.167 35.670,24.167 35.551 C 24.167 35.431,24.092 35.333,24.000 35.333 C 23.908 35.333,23.833 35.113,23.833 34.843 C 23.833 34.574,23.758 34.307,23.667 34.250 C 23.575 34.193,23.500 33.856,23.500 33.500 C 23.500 33.144,23.575 32.807,23.667 32.750 C 23.758 32.693,23.833 32.477,23.833 32.269 C 23.833 31.917,24.250 31.416,24.833 31.066 C 25.037 30.944,30.029 30.688,31.250 30.737 C 31.535 30.748,31.575 30.845,31.525 31.408 M83.574 30.769 C 83.749 30.837,83.789 30.938,83.688 31.061 C 83.603 31.165,83.491 31.625,83.438 32.083 C 83.385 32.542,83.298 33.292,83.243 33.750 C 82.899 36.643,79.808 38.226,77.913 36.479 C 77.502 36.100,77.167 35.688,77.167 35.562 C 77.167 35.436,77.092 35.333,77.000 35.333 C 76.908 35.333,76.833 35.188,76.833 35.010 C 76.833 34.832,76.758 34.640,76.667 34.583 C 76.408 34.423,76.468 32.448,76.749 31.886 C 77.237 30.907,77.404 30.848,79.841 30.791 C 81.074 30.763,82.358 30.723,82.695 30.703 C 83.031 30.683,83.427 30.713,83.574 30.769 M166.340 31.256 C 167.461 32.331,167.705 34.277,166.915 35.838 C 166.311 37.028,165.882 37.167,162.802 37.167 C 159.544 37.167,159.279 37.014,160.375 35.769 C 160.535 35.586,160.667 35.338,160.667 35.216 C 160.667 35.095,160.733 34.865,160.814 34.706 C 160.895 34.547,161.035 34.229,161.125 34.000 C 162.291 31.033,164.754 29.737,166.340 31.256 M277.181 31.264 C 278.680 32.700,278.459 36.081,276.812 36.902 C 275.679 37.468,270.151 37.205,270.645 36.610 C 270.945 36.248,271.833 34.472,271.833 34.233 C 271.833 34.105,271.908 34.000,272.000 34.000 C 272.092 34.000,272.167 33.862,272.167 33.692 C 272.167 31.618,275.743 29.886,277.181 31.264 M321.034 32.083 C 320.905 35.564,319.436 37.157,316.348 37.165 C 313.664 37.171,311.984 32.399,314.221 31.125 C 314.521 30.954,319.215 30.675,320.750 30.737 C 321.059 30.749,321.080 30.848,321.034 32.083 M342.525 31.408 C 342.493 31.771,342.399 32.244,342.316 32.461 C 342.234 32.678,342.167 33.264,342.167 33.763 C 342.167 35.577,340.583 36.903,338.155 37.123 C 336.547 37.269,334.833 36.008,334.833 34.679 C 334.833 34.500,334.758 34.307,334.667 34.250 C 334.575 34.193,334.500 33.856,334.500 33.500 C 334.500 33.144,334.575 32.807,334.667 32.750 C 334.758 32.693,334.833 32.477,334.833 32.269 C 334.833 31.917,335.250 31.416,335.833 31.066 C 336.037 30.944,341.029 30.688,342.250 30.737 C 342.535 30.748,342.575 30.845,342.525 31.408 M75.877 31.067 C 76.138 31.265,76.143 31.312,75.915 31.501 C 75.775 31.617,75.543 31.984,75.400 32.315 C 75.256 32.646,75.070 33.047,74.986 33.206 C 74.902 33.365,74.833 33.717,74.833 33.988 C 74.833 34.259,74.758 34.527,74.667 34.583 C 74.575 34.640,74.500 34.855,74.500 35.060 C 74.500 36.300,71.226 37.668,69.956 36.958 C 69.092 36.476,68.990 36.336,68.357 34.784 C 68.122 34.209,68.107 32.890,68.333 32.750 C 68.425 32.693,68.500 32.486,68.500 32.290 C 68.500 32.093,68.740 31.685,69.033 31.383 L 69.565 30.833 72.574 30.839 C 74.821 30.843,75.658 30.900,75.877 31.067 M95.813 33.129 C 95.058 33.833,95.096 34.265,95.985 35.069 C 96.856 35.858,98.368 34.155,97.555 33.300 C 96.727 32.430,96.578 32.416,95.813 33.129 M95.699 37.716 C 95.007 38.430,95.027 38.669,95.840 39.403 C 96.567 40.060,96.625 40.055,97.457 39.264 C 98.137 38.616,98.134 38.456,97.422 37.744 C 96.703 37.025,96.375 37.020,95.699 37.716 " stroke="none" fill="#f9f9f9" fill-rule="evenodd"></path><path id="path1" d="M0.000 35.917 L 0.000 71.833 200.000 71.833 L 400.000 71.833 400.000 35.917 L 400.000 0.000 200.000 0.000 L 0.000 0.000 0.000 35.917 M143.653 19.211 C 144.688 19.739,144.873 21.460,143.981 22.267 C 143.808 22.424,143.667 22.649,143.667 22.768 C 143.667 22.996,142.550 23.605,142.403 23.458 C 142.355 23.411,142.471 23.099,142.658 22.765 C 143.641 21.015,141.963 19.917,140.442 21.314 C 139.896 21.816,138.500 23.606,138.500 23.804 C 138.500 23.878,138.275 24.153,138.000 24.417 C 137.725 24.680,137.500 24.959,137.500 25.036 C 137.500 25.322,136.438 26.338,136.291 26.191 C 136.128 26.028,136.864 24.487,137.262 24.157 C 137.393 24.048,137.500 23.867,137.500 23.755 C 137.500 23.643,137.650 23.416,137.833 23.250 C 138.017 23.084,138.167 22.881,138.167 22.798 C 138.167 22.592,139.079 21.420,139.994 20.448 C 141.202 19.167,142.625 18.686,143.653 19.211 M52.561 19.512 C 53.394 20.168,53.120 22.064,52.057 23.000 C 50.973 23.954,50.206 24.048,50.847 23.147 C 51.640 22.033,51.361 20.651,50.349 20.678 C 49.583 20.699,49.343 20.889,46.574 23.666 C 44.485 25.761,43.824 26.335,43.743 26.125 C 43.499 25.488,48.129 20.393,49.720 19.546 C 50.652 19.051,51.955 19.035,52.561 19.512 M363.614 19.529 C 364.380 20.249,364.083 22.096,363.057 23.000 C 361.973 23.954,361.206 24.048,361.847 23.147 C 362.640 22.033,362.361 20.651,361.349 20.678 C 360.589 20.699,360.363 20.878,357.581 23.664 C 355.484 25.764,354.824 26.336,354.743 26.125 C 354.499 25.488,359.128 20.393,360.720 19.546 C 361.682 19.035,363.080 19.027,363.614 19.529 M183.884 20.397 C 184.648 21.097,184.648 21.195,183.882 21.917 C 183.126 22.630,183.069 22.632,182.383 21.967 C 181.093 20.717,182.559 19.184,183.884 20.397 M249.747 20.403 C 250.456 21.091,250.482 21.462,249.866 22.052 C 249.215 22.676,248.623 22.639,248.092 21.943 C 247.547 21.229,247.552 21.192,248.269 20.453 C 249.004 19.697,249.019 19.696,249.747 20.403 M307.201 20.450 C 307.972 21.203,307.972 21.206,307.256 21.922 C 306.541 22.637,306.249 22.645,305.550 21.967 C 304.866 21.304,304.863 21.074,305.533 20.383 C 306.210 19.684,306.426 19.693,307.201 20.450 M303.000 20.508 C 303.000 20.900,302.436 21.562,300.137 23.874 C 297.756 26.268,297.167 26.690,297.167 26.000 C 297.167 25.817,297.225 25.667,297.297 25.667 C 297.369 25.667,297.559 25.444,297.720 25.173 C 297.880 24.901,298.103 24.582,298.214 24.463 C 298.450 24.212,299.967 22.401,300.333 21.934 C 301.701 20.187,303.000 19.492,303.000 20.508 M210.803 20.959 C 210.833 21.165,210.758 21.431,210.637 21.550 C 210.264 21.917,208.322 23.380,206.833 24.415 C 206.054 24.957,205.379 25.442,205.333 25.492 C 204.882 25.987,203.667 26.410,203.667 26.071 C 203.667 25.774,203.581 25.864,205.583 24.083 C 206.408 23.350,207.121 22.712,207.167 22.667 C 207.213 22.621,207.588 22.324,208.000 22.006 C 208.412 21.689,208.775 21.370,208.806 21.298 C 208.836 21.226,208.956 21.167,209.071 21.167 C 209.187 21.167,209.421 21.013,209.590 20.825 C 210.006 20.366,210.730 20.446,210.803 20.959 M381.139 20.893 C 381.196 21.193,380.100 22.500,379.792 22.500 C 379.715 22.500,379.449 22.689,379.201 22.919 C 378.399 23.665,374.394 26.333,374.078 26.333 C 374.035 26.333,374.000 26.198,374.000 26.032 C 374.000 25.760,375.357 24.333,375.615 24.333 C 375.674 24.333,376.192 23.902,376.766 23.375 C 379.705 20.678,380.963 19.964,381.139 20.893 M61.833 23.052 C 62.653 23.790,62.721 23.941,62.480 24.485 C 62.052 25.451,61.049 25.593,60.425 24.776 C 59.882 24.064,59.884 24.050,60.617 23.299 C 61.338 22.561,61.297 22.569,61.833 23.052 M113.166 23.269 C 113.972 23.998,113.977 24.057,113.292 24.736 C 112.444 25.574,112.231 25.589,111.487 24.859 C 111.127 24.507,110.833 24.141,110.833 24.045 C 110.833 23.833,112.103 22.667,112.333 22.667 C 112.424 22.667,112.799 22.938,113.166 23.269 M181.833 23.269 C 182.661 24.017,182.661 24.149,181.837 24.893 C 181.088 25.570,180.863 25.553,180.144 24.763 C 179.542 24.102,179.550 23.982,180.247 23.264 C 180.964 22.526,181.010 22.526,181.833 23.269 M186.000 23.269 C 186.805 23.997,186.812 24.084,186.134 24.784 C 185.467 25.472,185.079 25.476,184.383 24.801 C 183.684 24.124,183.692 23.826,184.422 23.184 C 185.160 22.536,185.190 22.538,186.000 23.269 M247.784 23.199 C 248.465 23.860,248.479 24.315,247.835 24.889 C 247.172 25.480,246.635 25.459,246.098 24.821 C 245.537 24.154,245.550 24.050,246.284 23.299 C 247.032 22.532,247.091 22.528,247.784 23.199 M251.772 23.262 C 252.447 23.977,252.462 24.155,251.902 24.821 C 251.334 25.495,250.801 25.486,250.169 24.792 C 249.532 24.092,249.543 23.906,250.262 23.228 C 251.004 22.528,251.082 22.530,251.772 23.262 M305.201 23.284 C 305.549 23.623,305.833 23.990,305.833 24.098 C 305.833 24.280,304.601 25.500,304.417 25.500 C 304.241 25.500,303.000 24.285,303.000 24.113 C 303.000 23.882,304.178 22.667,304.402 22.667 C 304.494 22.667,304.854 22.944,305.201 23.284 M309.078 23.184 C 309.791 23.810,309.814 24.130,309.191 24.781 C 308.455 25.552,308.240 25.566,307.496 24.893 C 306.672 24.149,306.672 24.017,307.500 23.269 C 308.310 22.538,308.340 22.536,309.078 23.184 M22.500 28.224 C 22.500 29.207,22.737 29.250,28.087 29.250 C 32.892 29.250,32.981 29.244,33.479 28.875 C 34.510 28.113,34.752 28.568,33.841 29.556 L 33.167 30.287 33.167 34.967 C 33.167 37.907,33.105 39.685,33.000 39.750 C 32.903 39.810,32.833 40.748,32.833 42.000 C 32.833 43.252,32.764 44.190,32.667 44.250 C 32.575 44.307,32.500 44.682,32.500 45.083 C 32.500 45.485,32.425 45.860,32.333 45.917 C 32.242 45.973,32.167 46.163,32.167 46.338 C 32.167 46.947,30.840 48.964,30.044 49.564 C 29.498 49.976,28.998 49.796,29.413 49.338 C 29.811 48.898,30.500 47.510,30.500 47.148 C 30.500 46.986,30.575 46.807,30.667 46.750 C 30.758 46.693,30.833 46.206,30.833 45.667 C 30.833 45.127,30.908 44.640,31.000 44.583 C 31.244 44.432,31.223 36.957,30.978 36.711 C 30.798 36.532,29.852 37.021,29.694 37.375 C 29.664 37.444,29.563 37.500,29.470 37.500 C 29.377 37.500,29.102 37.640,28.859 37.811 C 27.702 38.624,24.259 39.220,23.917 38.667 C 23.860 38.575,23.702 38.500,23.566 38.500 C 22.417 38.500,21.313 35.002,22.026 33.623 C 22.357 32.983,22.553 32.599,22.784 32.143 C 22.907 31.900,23.119 31.609,23.256 31.495 C 23.629 31.185,23.273 30.870,22.401 30.739 C 21.120 30.547,20.595 29.922,21.042 29.123 C 21.664 28.008,22.500 27.494,22.500 28.224 M67.167 28.155 C 67.167 28.332,67.410 28.651,67.708 28.864 L 68.250 29.250 76.250 29.250 C 84.329 29.250,85.278 29.198,85.749 28.727 C 86.002 28.475,86.500 28.518,86.500 28.793 C 86.500 28.868,86.200 29.262,85.833 29.667 L 85.167 30.403 85.167 32.942 C 85.167 34.454,85.234 35.522,85.333 35.583 C 85.798 35.870,85.516 37.662,84.911 38.266 C 83.994 39.184,83.597 39.027,83.534 37.722 C 83.469 36.371,83.241 36.193,82.486 36.905 C 80.030 39.222,76.343 39.449,75.380 37.342 C 74.894 36.278,74.879 36.275,73.857 37.077 C 71.555 38.884,69.012 39.373,67.718 38.259 C 65.948 36.735,66.002 34.072,67.855 31.470 C 68.269 30.888,68.108 30.675,67.250 30.667 C 66.008 30.655,65.265 29.914,65.705 29.128 C 66.301 28.063,67.167 27.487,67.167 28.155 M97.368 28.450 C 97.716 28.790,98.000 29.156,98.000 29.264 C 98.000 29.447,96.768 30.667,96.583 30.667 C 96.344 30.667,95.167 29.418,95.167 29.165 C 95.167 28.848,96.214 27.833,96.540 27.833 C 96.648 27.833,97.020 28.111,97.368 28.450 M312.221 27.943 C 312.281 28.003,312.257 28.141,312.167 28.249 C 312.054 28.385,312.136 28.569,312.432 28.848 L 312.860 29.250 317.639 29.250 C 322.327 29.250,322.429 29.243,323.066 28.866 C 324.012 28.307,324.178 28.635,323.391 29.507 L 322.750 30.215 322.639 35.983 C 322.534 41.469,322.375 43.930,322.030 45.417 C 321.754 46.603,321.285 47.694,320.920 47.997 C 320.781 48.113,320.667 48.302,320.667 48.418 C 320.667 48.657,319.420 49.833,319.166 49.833 C 318.911 49.833,318.969 49.233,319.247 49.003 C 319.559 48.744,320.000 47.868,320.000 47.508 C 320.000 47.357,320.068 47.162,320.151 47.075 C 320.485 46.724,320.959 36.735,320.656 36.426 C 320.560 36.328,320.329 36.430,320.043 36.697 C 318.119 38.489,314.399 39.464,313.167 38.500 C 312.938 38.321,312.675 38.169,312.583 38.163 C 312.346 38.148,311.667 37.037,311.667 36.665 C 311.667 36.493,311.592 36.307,311.500 36.250 C 311.408 36.193,311.333 35.743,311.333 35.250 C 311.333 34.757,311.408 34.307,311.500 34.250 C 311.592 34.193,311.667 33.998,311.667 33.817 C 311.667 33.443,312.224 32.282,312.690 31.685 C 313.104 31.155,312.902 30.939,311.751 30.682 C 310.719 30.451,310.415 30.098,310.584 29.328 C 310.774 28.467,311.841 27.563,312.221 27.943 M333.500 28.224 C 333.500 29.207,333.737 29.250,339.087 29.250 C 343.892 29.250,343.981 29.244,344.479 28.875 C 345.510 28.113,345.752 28.568,344.841 29.556 L 344.167 30.287 344.167 34.967 C 344.167 37.907,344.105 39.685,344.000 39.750 C 343.903 39.810,343.833 40.748,343.833 42.000 C 343.833 43.252,343.764 44.190,343.667 44.250 C 343.575 44.307,343.500 44.682,343.500 45.083 C 343.500 45.485,343.425 45.860,343.333 45.917 C 343.242 45.973,343.167 46.163,343.167 46.338 C 343.167 46.947,341.840 48.964,341.044 49.564 C 340.498 49.976,339.998 49.796,340.413 49.338 C 340.811 48.898,341.500 47.510,341.500 47.148 C 341.500 46.986,341.575 46.807,341.667 46.750 C 341.758 46.693,341.833 46.206,341.833 45.667 C 341.833 45.127,341.908 44.640,342.000 44.583 C 342.244 44.432,342.223 36.957,341.978 36.711 C 341.798 36.532,340.852 37.021,340.694 37.375 C 340.664 37.444,340.563 37.500,340.470 37.500 C 340.377 37.500,340.102 37.640,339.859 37.811 C 338.702 38.624,335.259 39.220,334.917 38.667 C 334.860 38.575,334.702 38.500,334.566 38.500 C 333.417 38.500,332.313 35.002,333.026 33.623 C 333.357 32.983,333.553 32.599,333.784 32.143 C 333.907 31.900,334.119 31.609,334.256 31.495 C 334.629 31.185,334.273 30.870,333.401 30.739 C 332.120 30.547,331.595 29.922,332.042 29.123 C 332.664 28.008,333.500 27.494,333.500 28.224 M114.617 28.687 C 115.652 29.104,115.936 29.271,116.415 29.753 C 117.546 30.886,118.012 32.805,117.476 34.117 C 116.985 35.322,115.789 37.663,115.574 37.841 C 115.442 37.951,115.333 38.144,115.333 38.270 C 115.333 38.397,115.277 38.501,115.208 38.501 C 115.140 38.502,114.897 38.783,114.669 39.126 C 114.183 39.859,112.461 42.213,112.323 42.333 C 112.104 42.526,111.167 43.990,111.167 44.141 C 111.167 44.232,111.107 44.331,111.034 44.361 C 110.378 44.635,109.976 46.895,110.474 47.509 C 110.965 48.115,110.034 49.500,109.136 49.500 C 107.959 49.500,108.569 45.452,109.915 44.335 C 110.053 44.220,110.167 44.056,110.167 43.971 C 110.167 43.885,110.391 43.576,110.666 43.283 C 110.940 42.990,111.165 42.695,111.166 42.627 C 111.166 42.559,111.274 42.372,111.406 42.210 C 113.050 40.191,115.021 37.193,115.433 36.083 C 115.870 34.905,115.973 34.227,115.800 33.667 C 115.017 31.126,112.903 29.777,110.579 30.334 C 108.508 30.831,107.609 33.443,109.087 34.670 C 109.543 35.048,109.398 36.083,108.821 36.569 C 107.065 38.046,105.881 35.069,107.204 32.504 C 108.083 30.801,109.508 29.538,111.500 28.698 C 112.061 28.462,114.039 28.455,114.617 28.687 M377.841 28.711 C 381.146 29.863,381.654 34.229,378.882 37.667 C 378.697 37.895,377.669 39.302,376.535 40.877 C 376.287 41.222,375.735 41.975,375.310 42.549 C 373.508 44.982,372.884 46.875,373.655 47.573 C 374.260 48.120,372.994 49.660,372.120 49.441 C 371.097 49.184,371.819 45.383,373.091 44.327 C 373.224 44.216,373.333 44.032,373.333 43.917 C 373.333 43.802,373.456 43.606,373.606 43.481 C 373.756 43.357,374.075 42.961,374.314 42.601 C 374.554 42.241,374.863 41.779,375.000 41.574 C 375.137 41.369,375.606 40.742,376.042 40.182 C 376.477 39.621,376.833 39.123,376.833 39.075 C 376.833 39.026,376.983 38.825,377.167 38.628 C 377.350 38.431,377.500 38.172,377.500 38.052 C 377.500 37.932,377.566 37.833,377.647 37.833 C 377.728 37.833,377.836 37.702,377.887 37.542 C 377.938 37.381,378.088 37.063,378.220 36.833 C 379.355 34.869,379.161 32.807,377.717 31.493 C 375.285 29.281,371.883 29.985,371.563 32.768 C 371.480 33.487,371.530 33.672,371.982 34.333 C 372.636 35.291,372.644 35.881,372.013 36.513 C 370.325 38.201,369.031 35.079,370.342 32.482 C 371.196 30.791,372.584 29.576,374.667 28.698 C 375.244 28.455,377.128 28.462,377.841 28.711 M46.626 29.289 C 47.033 29.498,47.400 29.883,47.682 30.397 C 48.473 31.840,48.510 31.848,49.633 30.808 C 53.578 27.156,57.727 29.475,56.235 34.498 C 55.201 37.982,49.833 40.679,49.833 37.716 C 49.833 36.532,51.329 35.968,52.229 36.814 C 53.817 38.306,55.455 34.839,54.311 32.406 C 53.152 29.940,50.170 30.189,48.888 32.859 C 48.697 33.257,48.234 34.238,47.859 35.039 C 46.720 37.474,45.085 38.833,43.295 38.833 C 42.218 38.833,41.667 38.466,41.667 37.749 C 41.667 36.526,43.015 36.013,44.135 36.811 C 45.407 37.716,46.528 36.688,46.550 34.595 C 46.589 30.893,43.534 29.393,41.157 31.946 C 40.058 33.126,39.861 33.783,39.764 36.583 C 39.572 42.152,39.110 45.256,38.150 47.431 C 37.985 47.806,37.734 48.209,37.592 48.326 C 37.450 48.444,37.333 48.631,37.333 48.740 C 37.333 49.024,36.584 49.639,36.087 49.764 C 35.552 49.898,35.559 49.799,36.146 48.947 C 37.241 47.355,37.635 45.119,37.853 39.250 C 38.025 34.633,37.939 31.411,37.632 31.042 C 37.426 30.793,36.563 30.763,36.417 31.000 C 36.295 31.197,35.667 31.226,35.667 31.035 C 35.667 30.962,35.985 30.606,36.375 30.243 C 38.305 28.444,39.833 28.780,39.833 31.003 C 39.833 31.831,40.259 31.810,41.144 30.939 C 41.575 30.514,41.981 30.167,42.045 30.167 C 42.110 30.167,42.316 30.035,42.503 29.875 C 43.604 28.930,45.424 28.672,46.626 29.289 M131.226 29.246 C 132.186 29.685,132.520 30.104,133.065 31.548 C 133.522 32.760,133.164 34.970,132.375 35.804 C 132.260 35.925,132.167 36.079,132.167 36.146 C 132.167 36.346,130.791 37.752,130.257 38.098 C 128.343 39.337,125.987 39.005,126.226 37.530 C 126.406 36.420,127.582 36.061,128.619 36.799 C 131.151 38.602,132.588 33.758,130.203 31.460 C 128.732 30.043,126.755 30.403,124.813 32.441 C 123.834 33.470,123.667 33.997,123.667 36.057 C 123.667 41.415,122.579 47.369,121.425 48.326 C 121.283 48.444,121.167 48.631,121.167 48.741 C 121.167 49.046,120.474 49.628,119.958 49.756 C 119.456 49.880,119.348 49.667,119.746 49.337 C 121.107 48.207,121.831 43.371,121.829 35.417 C 121.828 30.906,121.529 30.152,120.108 31.082 C 119.397 31.548,119.396 31.038,120.106 30.310 C 121.886 28.486,123.667 28.762,123.667 30.862 C 123.667 31.723,124.009 31.871,124.750 31.331 C 127.150 29.581,127.421 29.421,128.583 29.075 C 129.635 28.762,130.256 28.802,131.226 29.246 M159.227 29.208 C 160.106 29.686,160.169 29.753,160.662 30.727 C 161.219 31.828,161.370 31.838,162.420 30.845 C 164.825 28.570,167.671 28.325,168.792 30.296 C 168.906 30.497,169.000 30.809,169.000 30.988 C 169.000 31.167,169.075 31.360,169.167 31.417 C 169.258 31.473,169.333 31.848,169.333 32.250 C 169.333 32.652,169.258 33.027,169.167 33.083 C 169.075 33.140,169.000 33.405,169.000 33.671 C 169.000 34.188,168.597 35.006,167.818 36.070 C 167.264 36.827,167.388 37.167,168.217 37.167 C 168.742 37.167,169.851 36.839,170.002 36.639 C 170.176 36.408,171.000 36.292,171.000 36.499 C 171.000 36.816,169.988 37.746,169.166 38.184 L 168.417 38.583 161.833 38.589 C 158.212 38.593,154.069 38.658,152.625 38.735 C 149.885 38.880,149.793 38.857,150.333 38.167 C 150.616 37.806,150.660 37.478,150.663 35.718 C 150.665 34.548,150.737 33.643,150.833 33.583 C 150.925 33.527,151.000 33.264,151.000 33.000 C 151.000 32.736,150.925 32.473,150.833 32.417 C 150.742 32.360,150.667 32.071,150.667 31.773 C 150.667 31.000,149.771 30.426,149.429 30.980 C 149.280 31.221,148.500 31.311,148.500 31.088 C 148.500 30.772,149.695 29.660,150.312 29.402 C 151.799 28.779,152.579 29.270,152.701 30.904 C 152.765 31.757,152.962 31.794,153.706 31.092 C 155.689 29.222,157.879 28.475,159.227 29.208 M182.155 29.041 C 182.899 29.301,183.583 30.002,184.012 30.942 C 184.407 31.810,184.437 31.815,185.184 31.125 C 186.042 30.332,187.125 29.500,187.298 29.500 C 187.381 29.500,187.683 29.383,187.969 29.240 C 189.674 28.390,191.122 28.966,192.072 30.873 C 192.520 31.773,192.669 33.510,192.351 34.127 C 192.269 34.286,191.950 34.942,191.643 35.583 C 190.150 38.697,185.667 40.265,185.667 37.673 C 185.667 36.530,187.182 35.987,188.062 36.814 C 188.952 37.649,190.500 36.763,190.500 35.417 C 190.500 35.041,190.590 34.643,190.700 34.533 C 190.856 34.378,190.856 34.289,190.700 34.133 C 190.590 34.023,190.500 33.622,190.500 33.242 C 190.500 32.763,190.398 32.459,190.167 32.250 C 189.983 32.084,189.833 31.850,189.833 31.730 C 189.833 30.964,187.379 30.311,186.774 30.917 C 186.636 31.054,186.454 31.167,186.368 31.167 C 185.931 31.167,184.854 32.679,184.350 34.000 C 183.915 35.140,183.670 35.623,183.420 35.831 C 183.281 35.946,183.167 36.128,183.167 36.234 C 183.167 36.521,181.514 38.084,180.787 38.486 C 179.377 39.264,177.667 38.860,177.667 37.749 C 177.667 36.517,179.134 35.942,180.059 36.811 C 181.215 37.896,182.500 36.648,182.500 34.439 C 182.500 28.949,176.286 29.700,175.793 35.250 C 175.659 36.761,174.328 38.833,173.492 38.833 C 173.079 38.833,173.082 38.695,173.504 38.245 C 174.217 37.487,174.265 31.743,173.565 31.042 C 173.326 30.802,172.729 30.764,172.596 30.980 C 172.442 31.229,171.667 31.310,171.667 31.078 C 171.667 30.407,173.594 29.167,174.635 29.167 C 175.423 29.167,175.833 29.743,175.833 30.849 C 175.833 31.723,176.094 31.801,176.807 31.138 C 178.141 29.899,180.057 28.868,181.072 28.845 C 181.340 28.838,181.827 28.927,182.155 29.041 M204.674 29.028 C 205.495 29.314,206.141 29.964,206.600 30.969 L 207.008 31.860 207.465 31.388 C 209.386 29.405,211.748 28.478,213.175 29.149 C 213.906 29.492,214.045 29.643,214.682 30.778 C 215.027 31.391,215.142 33.891,214.853 34.461 C 214.772 34.620,214.604 34.975,214.480 35.250 C 213.244 37.993,209.949 39.783,208.552 38.471 C 207.331 37.323,209.150 35.925,210.713 36.810 C 213.264 38.254,214.384 33.734,212.073 31.323 C 210.456 29.634,208.535 30.688,206.847 34.188 C 206.290 35.346,205.721 36.386,205.583 36.500 C 205.446 36.614,205.333 36.777,205.333 36.861 C 205.333 37.200,204.064 38.205,203.106 38.624 C 201.260 39.432,199.388 38.158,200.562 36.893 C 201.057 36.358,201.854 36.330,202.720 36.817 C 204.189 37.642,205.028 36.856,205.062 34.624 C 205.149 28.975,198.869 29.563,198.374 35.250 C 198.266 36.489,197.708 37.637,196.884 38.316 C 195.907 39.122,195.739 38.936,196.333 37.706 C 196.841 36.656,196.832 32.034,196.322 31.317 C 195.977 30.833,195.295 30.658,195.083 31.000 C 194.929 31.249,194.333 31.201,194.333 30.939 C 194.333 30.323,196.157 29.167,197.128 29.167 C 197.978 29.167,198.333 29.554,198.336 30.484 C 198.340 31.747,198.570 31.885,199.417 31.133 C 201.466 29.314,203.341 28.563,204.674 29.028 M234.047 29.202 C 234.725 29.554,235.500 30.458,235.500 30.896 C 235.500 31.800,235.934 31.749,237.258 30.692 C 238.464 29.730,238.779 29.542,240.050 29.023 C 243.042 27.803,245.093 32.096,243.220 35.662 C 241.858 38.256,238.760 39.758,237.513 38.430 C 236.399 37.245,238.529 35.686,239.726 36.811 C 240.524 37.560,241.645 37.073,242.004 35.819 C 243.085 32.051,239.911 29.134,237.442 31.627 C 236.666 32.411,235.500 34.455,235.500 35.032 C 235.500 35.198,235.443 35.333,235.374 35.333 C 235.305 35.333,235.148 35.560,235.025 35.837 C 233.793 38.620,228.725 40.167,229.238 37.604 C 229.462 36.482,230.899 36.034,231.739 36.823 C 232.555 37.590,233.831 36.917,233.833 35.718 C 233.833 35.517,233.908 35.307,234.000 35.250 C 234.092 35.193,234.167 34.781,234.167 34.333 C 234.167 33.886,234.092 33.473,234.000 33.417 C 233.908 33.360,233.833 33.167,233.833 32.987 C 233.833 31.984,232.592 30.799,231.441 30.703 C 230.113 30.593,227.833 32.205,227.833 33.254 C 227.833 33.470,227.758 33.693,227.667 33.750 C 227.575 33.807,227.500 34.107,227.500 34.417 C 227.500 34.727,227.425 35.027,227.333 35.083 C 227.242 35.140,227.167 35.447,227.167 35.766 C 227.167 36.474,226.642 37.563,225.949 38.292 C 225.107 39.178,224.594 38.937,225.163 37.922 C 225.693 36.980,225.673 31.789,225.138 31.219 C 224.713 30.767,224.537 30.747,223.894 31.081 C 222.795 31.652,223.312 30.494,224.506 29.708 C 225.793 28.862,227.167 28.981,227.167 29.940 C 227.167 30.146,227.242 30.360,227.333 30.417 C 227.425 30.473,227.500 30.698,227.500 30.917 C 227.500 31.712,227.982 31.508,230.169 29.782 C 231.310 28.882,232.957 28.636,234.047 29.202 M270.104 29.234 C 270.839 29.577,271.023 29.765,271.423 30.582 C 272.031 31.825,272.202 31.863,273.138 30.965 C 276.179 28.048,279.094 28.237,279.953 31.407 C 280.315 32.743,279.900 34.318,278.767 35.907 C 277.767 37.309,279.095 37.665,281.114 36.537 C 281.993 36.045,282.095 36.542,281.269 37.294 C 280.958 37.576,280.377 37.982,279.977 38.195 L 279.250 38.583 272.083 38.598 C 262.605 38.618,263.167 38.474,263.167 40.872 C 263.167 41.639,263.098 42.338,263.015 42.425 C 262.931 42.512,262.822 42.996,262.772 43.500 C 262.620 45.044,262.472 45.831,262.316 45.928 C 262.234 45.978,262.167 46.151,262.167 46.310 C 262.167 47.202,260.259 49.833,259.612 49.833 C 259.278 49.833,259.245 49.448,259.556 49.189 C 260.040 48.788,260.833 46.742,260.833 45.897 C 260.833 45.623,260.902 45.329,260.987 45.242 C 261.418 44.798,261.680 31.489,261.266 31.076 C 260.957 30.766,260.497 30.768,259.894 31.081 C 259.046 31.522,259.220 30.993,260.233 30.050 C 261.289 29.067,262.874 28.740,263.104 29.458 C 263.155 29.619,263.263 29.900,263.343 30.083 C 263.424 30.267,263.511 30.679,263.537 31.000 C 263.596 31.747,263.784 31.734,264.758 30.917 C 265.195 30.550,265.709 30.142,265.901 30.010 C 266.093 29.877,266.287 29.727,266.333 29.674 C 266.937 28.987,269.044 28.741,270.104 29.234 M292.167 29.014 C 292.976 29.200,293.701 29.784,294.090 30.563 C 294.365 31.115,294.421 32.926,294.167 33.083 C 294.075 33.140,294.000 33.325,294.000 33.494 C 294.000 34.390,291.788 37.091,290.375 37.921 C 290.077 38.095,289.833 38.297,289.833 38.369 C 289.833 38.441,289.750 38.500,289.649 38.500 C 289.548 38.500,289.132 38.725,288.724 39.000 C 288.317 39.275,287.941 39.500,287.890 39.500 C 287.644 39.500,285.000 41.815,285.000 42.030 C 285.000 42.113,284.858 42.333,284.684 42.520 C 283.963 43.294,283.985 45.177,284.724 46.036 C 285.826 47.317,287.422 47.729,288.215 46.937 C 288.687 46.464,289.263 46.251,289.413 46.494 C 289.541 46.701,287.929 48.344,287.333 48.614 C 284.089 50.082,281.267 47.291,282.752 44.083 C 283.485 42.502,284.865 40.840,286.375 39.724 C 287.355 38.999,287.393 38.567,286.659 36.500 C 286.382 35.721,286.038 34.746,285.895 34.333 C 285.751 33.921,285.566 33.512,285.484 33.425 C 285.401 33.338,285.333 33.139,285.333 32.982 C 285.333 32.685,284.707 31.382,284.413 31.068 C 283.997 30.623,283.584 30.528,283.043 30.756 C 281.947 31.217,282.123 30.399,283.278 29.666 C 284.764 28.724,285.970 29.077,286.534 30.619 C 286.788 31.315,287.073 31.409,287.547 30.952 C 288.255 30.270,289.312 29.500,289.540 29.500 C 289.665 29.500,289.838 29.431,289.925 29.346 C 290.053 29.222,290.972 28.900,291.333 28.852 C 291.379 28.846,291.754 28.919,292.167 29.014 M357.626 29.289 C 358.033 29.498,358.400 29.883,358.682 30.397 C 359.473 31.840,359.510 31.848,360.633 30.808 C 364.994 26.771,369.329 30.113,366.827 35.583 C 365.526 38.429,360.833 40.099,360.833 37.716 C 360.833 36.532,362.329 35.968,363.229 36.814 C 364.817 38.306,366.455 34.839,365.311 32.406 C 364.152 29.940,361.170 30.189,359.888 32.859 C 359.697 33.257,359.234 34.238,358.859 35.039 C 357.436 38.082,354.465 39.829,353.013 38.477 C 351.759 37.308,353.697 35.787,355.135 36.811 C 356.407 37.716,357.528 36.688,357.550 34.595 C 357.589 30.893,354.534 29.393,352.157 31.946 C 351.058 33.126,350.861 33.783,350.764 36.583 C 350.540 43.071,349.745 47.369,348.592 48.326 C 348.450 48.444,348.333 48.631,348.333 48.741 C 348.333 49.046,347.640 49.628,347.125 49.756 C 346.550 49.898,346.552 49.809,347.146 48.947 C 348.262 47.325,348.614 45.316,348.848 39.250 C 349.025 34.644,348.940 31.413,348.632 31.042 C 348.426 30.793,347.563 30.763,347.417 31.000 C 347.295 31.197,346.667 31.226,346.667 31.035 C 346.667 30.962,346.985 30.606,347.375 30.243 C 349.305 28.444,350.833 28.780,350.833 31.003 C 350.833 31.831,351.259 31.810,352.144 30.939 C 352.575 30.514,352.981 30.167,353.045 30.167 C 353.110 30.167,353.316 30.035,353.503 29.875 C 354.604 28.930,356.424 28.672,357.626 29.289 M62.684 29.750 C 63.637 31.382,62.852 36.813,61.449 38.292 C 60.607 39.178,60.094 38.937,60.663 37.922 C 61.100 37.145,61.181 31.491,60.762 31.071 C 60.456 30.766,59.995 30.769,59.394 31.081 C 59.074 31.248,58.897 31.270,58.856 31.148 C 58.773 30.902,59.179 30.168,59.403 30.160 C 59.502 30.156,59.846 29.928,60.167 29.653 C 60.992 28.946,62.242 28.994,62.684 29.750 M139.195 29.442 C 139.545 29.759,139.672 36.041,139.333 36.250 C 139.242 36.307,139.167 36.497,139.167 36.673 C 139.167 37.046,138.200 38.419,137.833 38.566 C 137.696 38.622,137.490 38.711,137.375 38.764 C 137.154 38.867,137.075 38.314,137.281 38.108 C 137.937 37.452,138.098 32.173,137.489 31.317 C 137.143 30.833,136.461 30.658,136.250 31.000 C 136.099 31.245,135.500 31.203,135.500 30.948 C 135.500 29.918,138.411 28.732,139.195 29.442 M250.101 29.458 C 250.375 29.819,250.435 36.084,250.167 36.250 C 250.075 36.307,250.000 36.524,250.000 36.734 C 250.000 36.944,249.850 37.251,249.667 37.417 C 249.483 37.583,249.333 37.787,249.333 37.871 C 249.333 38.110,248.395 38.833,248.086 38.833 C 247.958 38.833,247.982 38.240,248.114 38.108 C 248.770 37.452,248.931 32.173,248.322 31.317 C 247.977 30.833,247.295 30.658,247.083 31.000 C 246.950 31.215,246.333 31.217,246.333 31.003 C 246.333 29.924,249.477 28.636,250.101 29.458 M300.511 29.875 C 300.816 31.005,300.645 36.271,300.283 36.953 C 299.886 37.698,298.775 38.833,298.442 38.833 C 298.094 38.833,298.096 38.802,298.500 38.083 C 298.963 37.259,299.010 31.638,298.558 31.138 C 298.224 30.769,297.808 30.752,297.175 31.079 C 296.383 31.489,296.410 30.971,297.220 30.222 C 298.112 29.396,298.566 29.192,299.535 29.178 L 300.320 29.167 300.511 29.875 M307.537 29.813 C 307.813 30.308,307.842 30.648,307.777 32.646 C 307.667 36.039,307.373 37.152,306.285 38.292 C 305.439 39.177,304.927 38.937,305.497 37.922 C 305.933 37.145,306.015 31.491,305.595 31.071 C 305.290 30.766,304.828 30.769,304.227 31.081 C 303.907 31.248,303.730 31.270,303.689 31.148 C 303.600 30.885,304.021 30.167,304.264 30.167 C 304.379 30.167,304.497 30.109,304.528 30.038 C 304.957 29.048,307.024 28.893,307.537 29.813 M156.250 30.633 C 154.302 31.039,152.667 33.004,152.667 34.938 C 152.667 35.420,152.592 35.860,152.500 35.917 C 152.408 35.973,152.333 36.188,152.333 36.393 C 152.333 36.599,152.251 36.849,152.150 36.950 C 151.697 37.403,158.011 37.309,158.558 36.855 C 160.510 35.235,158.620 30.139,156.250 30.633 M267.000 30.620 C 265.548 31.143,263.833 32.616,263.833 33.342 C 263.833 33.510,263.758 33.693,263.667 33.750 C 263.412 33.907,263.451 37.113,263.708 37.209 C 264.274 37.422,269.027 37.115,269.361 36.844 C 270.581 35.857,270.370 32.886,268.974 31.384 C 268.454 30.825,267.478 30.447,267.000 30.620 M288.893 30.697 C 288.605 30.793,288.092 31.110,287.754 31.403 L 287.139 31.934 287.755 33.675 C 288.094 34.633,288.408 35.624,288.455 35.877 C 288.501 36.130,288.605 36.378,288.686 36.429 C 288.767 36.479,288.836 36.684,288.839 36.885 C 288.845 37.345,289.337 38.008,289.450 37.708 C 289.493 37.594,289.601 37.500,289.691 37.500 C 290.721 37.500,293.153 33.753,292.528 33.128 C 292.421 33.021,292.333 32.810,292.333 32.659 C 292.333 31.377,290.314 30.226,288.893 30.697 M28.000 30.820 C 26.396 30.873,24.971 30.984,24.833 31.066 C 24.250 31.416,23.833 31.917,23.833 32.269 C 23.833 32.477,23.758 32.693,23.667 32.750 C 23.575 32.807,23.500 33.144,23.500 33.500 C 23.500 33.856,23.575 34.193,23.667 34.250 C 23.758 34.307,23.833 34.574,23.833 34.843 C 23.833 35.113,23.908 35.333,24.000 35.333 C 24.092 35.333,24.167 35.431,24.167 35.551 C 24.167 35.819,25.092 36.688,25.700 36.990 C 26.389 37.333,27.936 37.127,29.199 36.524 C 30.730 35.794,31.167 35.181,31.167 33.763 C 31.167 33.264,31.234 32.678,31.316 32.461 C 31.399 32.244,31.493 31.771,31.525 31.408 C 31.594 30.629,31.954 30.689,28.000 30.820 M79.841 30.791 C 77.404 30.848,77.237 30.907,76.749 31.886 C 76.468 32.448,76.408 34.423,76.667 34.583 C 76.758 34.640,76.833 34.832,76.833 35.010 C 76.833 35.188,76.908 35.333,77.000 35.333 C 77.092 35.333,77.167 35.436,77.167 35.562 C 77.167 35.688,77.502 36.100,77.913 36.479 C 79.808 38.226,82.899 36.643,83.243 33.750 C 83.298 33.292,83.385 32.542,83.438 32.083 C 83.491 31.625,83.603 31.165,83.688 31.061 C 83.894 30.808,83.474 30.657,82.695 30.703 C 82.358 30.723,81.074 30.763,79.841 30.791 M163.406 30.969 C 162.500 31.539,161.647 32.673,161.125 34.000 C 161.035 34.229,160.895 34.547,160.814 34.706 C 160.733 34.865,160.667 35.095,160.667 35.216 C 160.667 35.338,160.535 35.586,160.375 35.769 C 159.279 37.014,159.544 37.167,162.802 37.167 C 165.882 37.167,166.311 37.028,166.915 35.838 C 168.413 32.881,165.904 29.398,163.406 30.969 M274.457 30.965 C 273.308 31.526,272.167 32.886,272.167 33.692 C 272.167 33.862,272.092 34.000,272.000 34.000 C 271.908 34.000,271.833 34.105,271.833 34.233 C 271.833 34.472,270.945 36.248,270.645 36.610 C 270.306 37.017,271.129 37.167,273.713 37.167 C 276.778 37.167,277.134 37.048,277.755 35.824 C 279.225 32.922,277.040 29.704,274.457 30.965 M317.500 30.821 C 313.614 30.951,313.333 31.145,313.333 33.696 C 313.333 37.256,317.503 38.455,320.095 35.639 C 320.966 34.693,321.490 30.766,320.750 30.737 C 320.567 30.729,319.104 30.767,317.500 30.821 M339.000 30.820 C 337.396 30.873,335.971 30.984,335.833 31.066 C 335.250 31.416,334.833 31.917,334.833 32.269 C 334.833 32.477,334.758 32.693,334.667 32.750 C 334.575 32.807,334.500 33.144,334.500 33.500 C 334.500 33.856,334.575 34.193,334.667 34.250 C 334.758 34.307,334.833 34.500,334.833 34.679 C 334.833 36.008,336.547 37.269,338.155 37.123 C 340.583 36.903,342.167 35.577,342.167 33.763 C 342.167 33.264,342.234 32.678,342.316 32.461 C 342.399 32.244,342.493 31.771,342.525 31.408 C 342.594 30.629,342.954 30.689,339.000 30.820 M69.033 31.383 C 68.740 31.685,68.500 32.093,68.500 32.290 C 68.500 32.486,68.425 32.693,68.333 32.750 C 68.107 32.890,68.122 34.209,68.357 34.784 C 68.990 36.336,69.092 36.476,69.956 36.958 C 71.226 37.668,74.500 36.300,74.500 35.060 C 74.500 34.855,74.575 34.640,74.667 34.583 C 74.758 34.527,74.833 34.259,74.833 33.988 C 74.833 33.717,74.902 33.365,74.986 33.206 C 75.070 33.047,75.256 32.646,75.400 32.315 C 75.543 31.984,75.775 31.617,75.915 31.501 C 76.519 31.000,75.731 30.844,72.574 30.839 L 69.565 30.833 69.033 31.383 M97.555 33.300 C 98.368 34.155,96.856 35.858,95.985 35.069 C 95.096 34.265,95.058 33.833,95.813 33.129 C 96.578 32.416,96.727 32.430,97.555 33.300 M97.422 37.744 C 98.134 38.456,98.137 38.616,97.457 39.264 C 96.625 40.055,96.567 40.060,95.840 39.403 C 95.027 38.669,95.007 38.430,95.699 37.716 C 96.375 37.020,96.703 37.025,97.422 37.744 " stroke="none" fill="#0d1117" fill-rule="evenodd"></path></g></svg>